<svg data-v-29081953="" xmlns="http://www.w3.org/2000/svg" viewBox="0 0 300 300"><!----><defs data-v-29081953=""><!----></defs><rect data-v-29081953="" fill="#E9F1EF" x="0" y="0" width="300px" height="300px" class="logo-background-square"></rect><defs data-v-29081953=""><!----></defs><g data-v-29081953="" id="c89ceba1-8f90-49a7-afc9-43f25ae75eac" fill="#163530" transform="matrix(4.417428850636752,0,0,4.417428850636752,119.34906156208834,109.40382860988093)"><path d="M0.97 14.35L3.04 14.35L3.04 13.12L3.11 13.12C3.32 13.92 4.13 14.52 5.08 14.52C6.94 14.52 7.91 13.16 7.91 10.67C7.91 8.18 6.94 6.83 5.08 6.83C4.13 6.83 3.32 7.42 3.11 8.23L3.04 8.23L3.04 3.99L0.97 3.99ZM4.40 12.84C3.61 12.84 3.04 12.43 3.04 11.76L3.04 9.59C3.04 8.92 3.61 8.51 4.40 8.51C5.18 8.51 5.75 9.11 5.75 10.04L5.75 11.31C5.75 12.24 5.18 12.84 4.40 12.84ZM10.51 6.22C11.35 6.22 11.72 5.78 11.72 5.19L11.72 4.89C11.72 4.30 11.35 3.86 10.51 3.86C9.67 3.86 9.31 4.30 9.31 4.89L9.31 5.19C9.31 5.78 9.67 6.22 10.51 6.22ZM9.48 14.35L11.55 14.35L11.55 7.00L9.48 7.00ZM17.29 14.35L17.29 12.74L15.95 12.74L15.95 8.61L17.40 8.61L17.40 7.00L15.95 7.00L15.95 5.01L14.08 5.01L14.08 6.22C14.08 6.72 13.92 7.00 13.36 7.00L12.84 7.00L12.84 8.61L13.87 8.61L13.87 12.21C13.87 13.61 14.63 14.35 16.06 14.35ZM24.58 14.35L24.58 12.74L20.82 12.74L24.49 8.62L24.49 7.00L18.55 7.00L18.55 8.61L22.08 8.61L18.42 12.71L18.42 14.35ZM31.84 14.35L31.84 12.74L28.07 12.74L31.74 8.62L31.74 7.00L25.80 7.00L25.80 8.61L29.33 8.61L25.68 12.71L25.68 14.35Z"></path></g><defs data-v-29081953=""><linearGradient data-v-29081953="" gradientTransform="rotate(25)" id="b8d133a4-4d77-4805-9ddf-2a8a1bba9f96" x1="0%" y1="0%" x2="100%" y2="0%"><stop data-v-29081953="" offset="0%" stop-color="#021802" stop-opacity="1"></stop><stop data-v-29081953="" offset="100%" stop-color="#60DBCC" stop-opacity="1"></stop></linearGradient></defs><g data-v-29081953="" id="c25bdaa5-2633-407a-8b2e-32454a23f701" stroke="none" fill="url(#b8d133a4-4d77-4805-9ddf-2a8a1bba9f96)" transform="matrix(0.9611550189054228,0,0,0.9611550189054228,26.588046994690096,101.05516498038799)"><path d="M53.734 56.649l-.002-.03a.247.247 0 0 0-.001.03h.003zM67.175 63.658c-.212.124-.428.24-.643.357 0 .002 0 .005-.002.007.206-.112.423-.233.645-.364zM48.14 65.142l-.002.003c.446.195.988.379 1.494.532l.008-.008a21.492 21.492 0 0 1-1.5-.527z"></path><path d="M49.631 65.678c.513.155.986.277 1.283.352-.43-.106-.853-.23-1.275-.36l-.008.008zM51.23 66.106l.004-.003c-.078-.02-.154-.032-.232-.052l.228.055zM66.199 64.198c-.509.267-1.027.507-1.55.729 0 .003-.002.006-.003.008.052-.022.678-.28 1.553-.737zM66.53 64.021l.002-.006c-.084.046-.166.096-.251.14.082-.043.166-.087.248-.134z"></path><path d="M50.339 20.544l-9.29 9.29a21.926 21.926 0 0 0-2.18 2.539c-.14.193-.27.394-.404.59a24.773 24.773 0 0 1 13.703.218l.76-.76L58.05 27.3c4.493-4.493 11.778-4.492 16.272.001 4.492 4.493 4.493 11.78 0 16.272l-5.84 5.84-1.2 1.201-1.17 1.17-.004.003-1.946 1.946a11.457 11.457 0 0 1-7.277 3.334v.004h-.003c-.557.049-1.035.051-1.444.035-.899-.04-1.42-.18-1.42-.18v-.002h-.004a11.445 11.445 0 0 1-6.123-3.192 11.458 11.458 0 0 1-3.16-5.938c-.012-.062-.02-.124-.03-.186a8.596 8.596 0 0 0-5.398 2.493l-3.094 3.094a21.64 21.64 0 0 0 4.841 7.378 21.654 21.654 0 0 0 10.236 5.752c.077.02.154.032.232.051a21.816 21.816 0 0 0 15.047-1.948c.085-.043.167-.092.25-.139.216-.116.432-.233.643-.358l.008-.004a21.823 21.823 0 0 0 4.321-3.355l9.29-9.289c8.488-8.488 8.487-22.25 0-30.738-8.488-8.488-22.25-8.49-30.738 0z"></path><path d="M51.06 81.301l9.288-9.289a21.928 21.928 0 0 0 2.18-2.54c.142-.194.271-.394.405-.59a24.76 24.76 0 0 1-13.702-.219l-.76.76-5.123 5.122c-4.493 4.494-11.778 4.493-16.272 0-4.493-4.494-4.493-11.778 0-16.272l5.84-5.84 1.201-1.2 1.169-1.17.004-.004 1.946-1.945a11.457 11.457 0 0 1 7.276-3.334v-.003h.002c.558-.05 1.036-.052 1.445-.035.898.037 1.42.178 1.42.178v.003h.004a11.445 11.445 0 0 1 6.123 3.19 11.452 11.452 0 0 1 3.16 5.938c.012.063.02.125.03.186a8.595 8.595 0 0 0 5.398-2.491l3.094-3.094a21.661 21.661 0 0 0-4.843-7.378 21.65 21.65 0 0 0-10.148-5.731 5.839 5.839 0 0 1-.087-.022c-.077-.019-.155-.033-.231-.051a21.815 21.815 0 0 0-14.966 1.903l-.083.043c-.084.045-.166.094-.25.14-.215.117-.431.234-.643.36l-.007.004a21.739 21.739 0 0 0-4.322 3.355l-9.288 9.288c-8.488 8.488-8.488 22.249 0 30.737 8.49 8.49 22.25 8.49 30.74.001zM67.183 63.653c-.003.002-.006.002-.008.005.002-.003.005-.003.008-.005zM66.199 64.198a1.52 1.52 0 0 0 .082-.044c-.026.016-.054.03-.082.044z"></path><path d="M53.734 56.652s.522.14 1.42.18v-.02c-.475-.023-.95-.08-1.42-.163v.003zM51.001 66.051z"></path><path d="M55.155 56.812c-.002.006-.001.012 0 .02.408.016.886.013 1.444-.036v-.003c-.48.035-.964.043-1.444.02zM56.602 56.793l-.002-.017-.002.017h.004z"></path><path d="M56.598 56.794l.002-.002.003.002-.003.003z"></path></g><!----></svg>